<svg width="18" height="19" viewBox="0 0 18 19" fill="none" xmlns="http://www.w3.org/2000/svg">
<ellipse cx="5.66671" cy="11.1667" rx="0.833333" ry="0.833333" fill="#979797"/>
<ellipse cx="9.00008" cy="11.1667" rx="0.833333" ry="0.833333" fill="#979797"/>
<circle cx="12.3333" cy="11.1667" r="0.833333" fill="#979797"/>
<ellipse cx="5.66671" cy="14.5001" rx="0.833333" ry="0.833333" fill="#979797"/>
<circle cx="9.00008" cy="14.5001" r="0.833333" fill="#979797"/>
<ellipse cx="12.3333" cy="14.5001" rx="0.833333" ry="0.833333" fill="#979797"/>
<path d="M16.5 7.83329H1.5M12.3333 1.16663V4.49996M5.66667 1.16663V4.49996M5.5 17.8333H12.5C13.9001 17.8333 14.6002 17.8333 15.135 17.5608C15.6054 17.3211 15.9878 16.9387 16.2275 16.4683C16.5 15.9335 16.5 15.2334 16.5 13.8333V6.83329C16.5 5.43316 16.5 4.7331 16.2275 4.19832C15.9878 3.72791 15.6054 3.34546 15.135 3.10578C14.6002 2.83329 13.9001 2.83329 12.5 2.83329H5.5C4.09987 2.83329 3.3998 2.83329 2.86502 3.10578C2.39462 3.34546 2.01217 3.72791 1.77248 4.19832C1.5 4.7331 1.5 5.43316 1.5 6.83329V13.8333C1.5 15.2334 1.5 15.9335 1.77248 16.4683C2.01217 16.9387 2.39462 17.3211 2.86502 17.5608C3.3998 17.8333 4.09987 17.8333 5.5 17.8333Z" stroke="#979797" stroke-width="1.2" stroke-linecap="round" stroke-linejoin="round"/>
</svg>
