<svg width="18" height="18" viewBox="0 0 18 18" fill="none" xmlns="http://www.w3.org/2000/svg">
<path d="M6.49996 17V10.8333C6.49996 10.3666 6.49996 10.1333 6.59079 9.95501C6.67068 9.79821 6.79817 9.67072 6.95497 9.59083C7.13323 9.5 7.36659 9.5 7.8333 9.5H10.1666C10.6333 9.5 10.8667 9.5 11.045 9.59083C11.2018 9.67072 11.3292 9.79821 11.4091 9.95501C11.5 10.1333 11.5 10.3666 11.5 10.8333V17M0.666626 7.41667L8.19996 1.76667C8.48684 1.5515 8.63029 1.44392 8.78782 1.40245C8.92688 1.36585 9.07304 1.36585 9.2121 1.40245C9.36964 1.44392 9.51308 1.55151 9.79996 1.76667L17.3333 7.41667M2.3333 6.16667V14.3333C2.3333 15.2668 2.3333 15.7335 2.51495 16.09C2.67474 16.4036 2.92971 16.6586 3.24331 16.8183C3.59983 17 4.06654 17 4.99996 17H13C13.9334 17 14.4001 17 14.7566 16.8183C15.0702 16.6586 15.3252 16.4036 15.485 16.09C15.6666 15.7335 15.6666 15.2668 15.6666 14.3333V6.16667L10.6 2.36667C10.0262 1.93634 9.73932 1.72118 9.42424 1.63824C9.14613 1.56503 8.8538 1.56503 8.57568 1.63824C8.26061 1.72118 7.97373 1.93634 7.39996 2.36667L2.3333 6.16667Z" stroke="#008745" stroke-width="1.2" stroke-linecap="round" stroke-linejoin="round"/>
</svg>
