<svg width="18" height="17" viewBox="0 0 18 17" fill="none" xmlns="http://www.w3.org/2000/svg">
<path d="M16.5 6L11.1262 9.83841C10.963 9.95503 10.8813 10.0133 10.7939 10.0309C10.7168 10.0464 10.637 10.0398 10.5635 10.0119C10.4801 9.98014 10.4092 9.9092 10.2673 9.76733L7.73267 7.23267C7.5908 7.0908 7.51986 7.01986 7.43652 6.98814C7.36305 6.96017 7.28317 6.95356 7.2061 6.96907C7.11868 6.98666 7.03704 7.04497 6.87378 7.16159L1.5 11M5.5 16H12.5C13.9001 16 14.6002 16 15.135 15.7275C15.6054 15.4878 15.9878 15.1054 16.2275 14.635C16.5 14.1002 16.5 13.4001 16.5 12V5C16.5 3.59987 16.5 2.8998 16.2275 2.36502C15.9878 1.89462 15.6054 1.51217 15.135 1.27248C14.6002 1 13.9001 1 12.5 1H5.5C4.09987 1 3.3998 1 2.86502 1.27248C2.39462 1.51217 2.01217 1.89462 1.77248 2.36502C1.5 2.8998 1.5 3.59987 1.5 5V12C1.5 13.4001 1.5 14.1002 1.77248 14.635C2.01217 15.1054 2.39462 15.4878 2.86502 15.7275C3.3998 16 4.09987 16 5.5 16Z" stroke="#979797" stroke-width="1.2" stroke-linecap="round" stroke-linejoin="round"/>
</svg>
