<svg width="18" height="17" viewBox="0 0 18 17" fill="none" xmlns="http://www.w3.org/2000/svg">
<path d="M17.3333 16V14.3333C17.3333 12.7801 16.271 11.4751 14.8333 11.105M11.9166 1.2423C13.1382 1.73679 14 2.93443 14 4.33333C14 5.73224 13.1382 6.92988 11.9166 7.42437M13.1666 16C13.1666 14.4469 13.1666 13.6703 12.9129 13.0577C12.5746 12.241 11.9257 11.592 11.1089 11.2537C10.4963 11 9.71977 11 8.16663 11H5.66663C4.11349 11 3.33692 11 2.72435 11.2537C1.90759 11.592 1.25867 12.241 0.920361 13.0577C0.666626 13.6703 0.666626 14.4469 0.666626 16M10.25 4.33333C10.25 6.17428 8.75758 7.66667 6.91663 7.66667C5.07568 7.66667 3.58329 6.17428 3.58329 4.33333C3.58329 2.49238 5.07568 1 6.91663 1C8.75758 1 10.25 2.49238 10.25 4.33333Z" stroke="#979797" stroke-width="1.2" stroke-linecap="round" stroke-linejoin="round"/>
</svg>
