<svg width="14" height="16" viewBox="0 0 14 16" fill="none" xmlns="http://www.w3.org/2000/svg">
<circle cx="4.33332" cy="9.33332" r="0.666667" fill="#979797"/>
<circle cx="6.99998" cy="9.33332" r="0.666667" fill="#979797"/>
<circle cx="9.66667" cy="9.33332" r="0.666667" fill="#979797"/>
<circle cx="4.33332" cy="12" r="0.666667" fill="#979797"/>
<circle cx="6.99998" cy="12" r="0.666667" fill="#979797"/>
<circle cx="9.66667" cy="12" r="0.666667" fill="#979797"/>
<path d="M13 6.66668H1M9.66667 1.33334V4.00001M4.33333 1.33334V4.00001M4.2 14.6667H9.8C10.9201 14.6667 11.4802 14.6667 11.908 14.4487C12.2843 14.2569 12.5903 13.951 12.782 13.5747C13 13.1468 13 12.5868 13 11.4667V5.86668C13 4.74657 13 4.18652 12.782 3.7587C12.5903 3.38237 12.2843 3.07641 11.908 2.88466C11.4802 2.66668 10.9201 2.66668 9.8 2.66668H4.2C3.0799 2.66668 2.51984 2.66668 2.09202 2.88466C1.71569 3.07641 1.40973 3.38237 1.21799 3.7587C1 4.18652 1 4.74657 1 5.86668V11.4667C1 12.5868 1 13.1468 1.21799 13.5747C1.40973 13.951 1.71569 14.2569 2.09202 14.4487C2.51984 14.6667 3.0799 14.6667 4.2 14.6667Z" stroke="#979797" stroke-width="0.8" stroke-linecap="round" stroke-linejoin="round"/>
</svg>
