<svg width="16" height="16" viewBox="0 0 16 16" fill="none" xmlns="http://www.w3.org/2000/svg">
<path d="M8 2.66668V10.1333C8 11.2534 8 11.8135 8.21799 12.2413C8.40973 12.6176 8.71569 12.9236 9.09202 13.1154C9.51984 13.3333 10.0799 13.3333 11.2 13.3333H11.3333M11.3333 13.3333C11.3333 14.0697 11.9303 14.6667 12.6667 14.6667C13.403 14.6667 14 14.0697 14 13.3333C14 12.597 13.403 12 12.6667 12C11.9303 12 11.3333 12.597 11.3333 13.3333ZM4.66667 2.66668L11.3333 2.66668M4.66667 2.66668C4.66667 3.40306 4.06971 4.00001 3.33333 4.00001C2.59695 4.00001 2 3.40306 2 2.66668C2 1.9303 2.59695 1.33334 3.33333 1.33334C4.06971 1.33334 4.66667 1.9303 4.66667 2.66668ZM11.3333 2.66668C11.3333 3.40306 11.9303 4.00001 12.6667 4.00001C13.403 4.00001 14 3.40306 14 2.66668C14 1.9303 13.403 1.33334 12.6667 1.33334C11.9303 1.33334 11.3333 1.9303 11.3333 2.66668ZM8 8.00001H11.3333M11.3333 8.00001C11.3333 8.73639 11.9303 9.33334 12.6667 9.33334C13.403 9.33334 14 8.73639 14 8.00001C14 7.26363 13.403 6.66668 12.6667 6.66668C11.9303 6.66668 11.3333 7.26363 11.3333 8.00001Z" stroke="#212121" stroke-linecap="round" stroke-linejoin="round"/>
</svg>
