<svg width="21" height="20" viewBox="0 0 21 20" fill="none" xmlns="http://www.w3.org/2000/svg">
<rect x="0.5" width="20" height="20" rx="4" fill="#F2F4F6"/>
<path d="M15.1666 8.66663V4.66663M13.1666 6.66663H17.1666M13.1666 16V15.2C13.1666 14.0799 13.1666 13.5198 12.9487 13.092C12.7569 12.7157 12.451 12.4097 12.0746 12.2179C11.6468 12 11.0868 12 9.96665 12H7.03331C5.91321 12 5.35316 12 4.92533 12.2179C4.54901 12.4097 4.24305 12.7157 4.0513 13.092C3.83331 13.5198 3.83331 14.0799 3.83331 15.2V16M10.8333 6.99996C10.8333 8.28862 9.78864 9.33329 8.49998 9.33329C7.21132 9.33329 6.16665 8.28862 6.16665 6.99996C6.16665 5.71129 7.21132 4.66663 8.49998 4.66663C9.78864 4.66663 10.8333 5.71129 10.8333 6.99996Z" stroke="#212121" stroke-linecap="round" stroke-linejoin="round"/>
</svg>
